<svg width="32" height="32" viewBox="0 0 32 32" fill="none" xmlns="http://www.w3.org/2000/svg">
<path fill-rule="evenodd" clip-rule="evenodd" d="M15.9904 1.49219V3.10643L15.1218 3.17209C14.6405 3.21039 13.9213 3.30342 13.5286 3.38002C13.1303 3.4621 12.4719 3.63721 12.0626 3.76854C11.6532 3.89986 10.9893 4.16799 10.5965 4.35404C10.1982 4.54556 9.66715 4.8301 9.40714 4.98879C9.14713 5.14748 8.71009 5.44844 8.43901 5.6509C8.16241 5.85884 7.69218 6.25282 7.39344 6.53736C7.08918 6.81644 6.64661 7.28156 6.40872 7.5661C6.16531 7.85064 5.79466 8.34312 5.57891 8.6605C5.36868 8.97787 5.01463 9.59074 4.79334 10.0285C4.57206 10.4663 4.27886 11.1667 4.14055 11.588C3.99672 12.0094 3.81969 12.6605 3.74224 13.0381C3.66479 13.4157 3.57628 14.0066 3.54862 14.3514C3.51542 14.6961 3.48776 15.2159 3.48776 15.5005C3.48776 15.785 3.51542 16.3049 3.54862 16.6496C3.57628 16.9943 3.66479 17.5798 3.74224 17.9519C3.81416 18.3186 3.99119 18.9697 4.13502 19.402C4.27886 19.8288 4.57206 20.5347 4.79334 20.9725C5.01463 21.4102 5.36868 22.0231 5.57891 22.3405C5.79466 22.6579 6.16531 23.1503 6.40872 23.4349C6.64661 23.7194 7.08918 24.1845 7.39344 24.4636C7.69218 24.7427 8.16241 25.1421 8.43901 25.3501C8.71009 25.5525 9.14713 25.848 9.40714 26.0122C9.66715 26.1709 10.1982 26.4554 10.5965 26.6469C10.9893 26.833 11.6532 27.1011 12.0626 27.2324C12.4719 27.3638 13.1303 27.5389 13.5286 27.6155C13.9213 27.6921 14.5188 27.7796 14.8563 27.8125C15.1882 27.8398 15.7027 27.8672 15.9904 27.8672C16.278 27.8672 16.8036 27.8398 17.1521 27.807C17.5006 27.7796 18.0981 27.6921 18.4798 27.6155C18.8615 27.5389 19.5088 27.3692 19.9182 27.2324C20.3275 27.1011 20.9859 26.833 21.3842 26.6469C21.777 26.4554 22.3136 26.1709 22.5736 26.0122C22.8336 25.8535 23.2651 25.5525 23.5417 25.3501C23.8128 25.1476 24.2885 24.7482 24.5873 24.4691C24.886 24.1845 25.3341 23.7194 25.572 23.4349C25.8154 23.1503 26.1861 22.6579 26.4018 22.3405C26.612 22.0231 26.9661 21.4102 27.1874 20.9725C27.4087 20.5347 27.7019 19.8343 27.8402 19.413C27.9785 18.9916 28.161 18.3405 28.233 17.9629C28.3104 17.5853 28.4044 16.956 28.4432 16.5675C28.4819 16.1407 28.493 15.5224 28.4708 15.0354C28.4542 14.5867 28.3879 13.9191 28.3325 13.5579C28.2717 13.1968 28.161 12.666 28.0836 12.3815C28.0061 12.0969 27.8678 11.6373 27.7738 11.3691C27.6797 11.0955 27.4253 10.521 27.2095 10.0832C26.9993 9.64546 26.6397 9.01618 26.4184 8.68786C26.1971 8.35407 25.8044 7.8397 25.5554 7.53874C25.146 7.06268 25.0907 7.00796 25.0741 7.12834C25.0686 7.20495 25.0962 7.64818 25.135 8.1133C25.1792 8.57842 25.2013 8.9724 25.1903 8.98882C25.1737 9.00523 24.8086 9.04354 24.3826 9.07637C23.9511 9.11467 23.5915 9.13656 23.5804 9.13109C23.5694 9.13109 23.4698 8.09688 23.3592 6.8438C23.2485 5.59071 23.1766 4.54556 23.1987 4.5182C23.2264 4.49631 24.2775 4.38687 25.5333 4.2829C26.7946 4.17894 27.8346 4.10233 27.8457 4.11874C27.8623 4.13516 27.901 4.50178 27.9342 4.93954C27.9729 5.3773 27.9951 5.73845 27.984 5.73845C27.9729 5.74393 27.6078 5.77676 27.1653 5.80959C26.7227 5.84789 26.352 5.8862 26.3354 5.89714C26.3188 5.91356 26.4184 6.03941 26.5567 6.18168C26.695 6.32943 26.9716 6.65228 27.1763 6.90946C27.3755 7.16664 27.7074 7.63176 27.9176 7.94914C28.1223 8.26651 28.4598 8.85749 28.6645 9.26242C28.8691 9.66734 29.1236 10.2364 29.2287 10.521C29.3394 10.8055 29.4998 11.298 29.5939 11.6154C29.6824 11.9327 29.8096 12.4362 29.8705 12.7371C29.9313 13.0381 30.0088 13.4813 30.0475 13.7221C30.0807 13.9629 30.1249 14.6414 30.136 15.2269C30.1581 16.0258 30.1415 16.4745 30.0752 17.0053C30.0254 17.3938 29.9203 18.0121 29.8483 18.3733C29.7764 18.7344 29.6105 19.3473 29.4832 19.7413C29.356 20.1298 29.1292 20.7372 28.9798 21.0819C28.8304 21.4267 28.5704 21.9574 28.3989 22.2584C28.2274 22.5594 27.9508 23.0135 27.7738 23.2707C27.6023 23.5279 27.2814 23.9547 27.0601 24.2283C26.8444 24.4964 26.3852 24.9999 26.0422 25.3446C25.7048 25.6839 25.1737 26.1654 24.8694 26.4062C24.5652 26.6469 24.0396 27.0245 23.7077 27.2434C23.3702 27.4568 22.8391 27.7687 22.5183 27.9383C22.1974 28.1025 21.6387 28.3542 21.2735 28.5019C20.9084 28.6442 20.3331 28.8412 20.0012 28.9342C19.6637 29.0327 19.1935 29.1531 18.9501 29.2024C18.7066 29.2516 18.17 29.3392 17.7606 29.3993C17.2185 29.4814 16.7317 29.5088 15.9904 29.5088C15.238 29.5088 14.7622 29.4814 14.1924 29.3939C13.7664 29.3337 13.18 29.2297 12.8924 29.1695C12.6047 29.1093 12.057 28.9616 11.6753 28.8412C11.2936 28.7208 10.7072 28.5019 10.3753 28.3651C10.0378 28.2229 9.50671 27.9602 9.18585 27.7851C8.86499 27.61 8.39476 27.3309 8.13475 27.1558C7.87474 26.9862 7.4377 26.6688 7.16663 26.4499C6.89002 26.2365 6.3866 25.7824 6.03807 25.4431C5.69508 25.1093 5.20825 24.584 4.96484 24.283C4.72143 23.9821 4.37843 23.5279 4.20694 23.2707C4.03544 23.0135 3.76437 22.5812 3.60947 22.3131C3.45457 22.0395 3.21116 21.5635 3.07285 21.2461C2.92902 20.9287 2.70773 20.3651 2.57496 19.9875C2.44772 19.61 2.27623 19.019 2.19325 18.6742C2.1158 18.3295 1.99962 17.6893 1.93877 17.2515C1.86132 16.7098 1.82812 16.1626 1.82812 15.5278C1.82812 14.9205 1.86132 14.324 1.93324 13.8042C1.99409 13.3664 2.10473 12.7152 2.18771 12.3541C2.27069 11.9929 2.44772 11.391 2.57496 11.0135C2.70773 10.6359 2.92902 10.0723 3.07285 9.7549C3.21116 9.43752 3.45457 8.95599 3.60947 8.68786C3.76437 8.41426 4.03544 7.98744 4.20694 7.73026C4.37843 7.47308 4.72143 7.0189 4.96484 6.71794C5.20825 6.41698 5.69508 5.89167 6.03807 5.55788C6.3866 5.21861 6.89002 4.76444 7.16663 4.55103C7.4377 4.33215 7.87474 4.01478 8.13475 3.84514C8.39476 3.67004 8.85392 3.39644 9.15819 3.22681C9.46246 3.05718 9.99907 2.79999 10.3476 2.65225C10.6961 2.50451 11.2936 2.28015 11.6753 2.15977C12.057 2.03939 12.6268 1.88617 12.9477 1.81504C13.2686 1.74937 13.8162 1.65088 14.1648 1.60163C14.5133 1.54691 15.0665 1.50313 15.9904 1.49219ZM15.1605 6.85474V8.76994H16.8202V7.81234C16.8202 7.08456 16.8368 6.85474 16.8921 6.85474C16.9253 6.85474 17.1798 6.89304 17.4564 6.93682C17.7275 6.9806 18.17 7.07909 18.4411 7.1557C18.7066 7.23231 19.1547 7.391 19.4313 7.51138C19.7135 7.63176 20.145 7.84517 20.3884 7.98744C20.6318 8.12424 21.0025 8.36501 21.2182 8.5237C21.4284 8.67691 21.777 8.96146 21.9872 9.15845C22.1974 9.34997 22.5238 9.6947 22.7119 9.91906C22.9 10.1434 23.2043 10.5483 23.3813 10.8219C23.5583 11.0901 23.8073 11.5333 23.9345 11.8069C24.0673 12.075 24.2443 12.5183 24.3328 12.7919C24.4213 13.06 24.5375 13.4813 24.5818 13.7221C24.6315 13.9629 24.6869 14.2748 24.7311 14.6797H22.7949V16.3213H24.7311L24.7035 16.5785C24.6869 16.7262 24.6315 17.0381 24.5818 17.2789C24.5375 17.5197 24.4213 17.9355 24.3328 18.2091C24.2443 18.4773 24.0673 18.9205 23.9345 19.1941C23.8073 19.4622 23.5583 19.9054 23.3813 20.179C23.2043 20.4472 22.9 20.8576 22.7119 21.0819C22.5183 21.3063 22.2306 21.6182 22.0646 21.7714C21.9042 21.9246 21.6497 22.149 21.4948 22.2693C21.3455 22.3897 20.9914 22.636 20.7203 22.8111C20.4437 22.9862 19.9956 23.2324 19.7245 23.3583C19.4479 23.4896 18.9998 23.6647 18.7288 23.7523C18.4522 23.8398 18.0317 23.9547 17.7883 23.9985C17.5449 24.0477 17.2296 24.1025 16.8202 24.1462V22.231H15.1605V24.1462L14.9005 24.1189C14.7512 24.1025 14.4358 24.0477 14.1924 23.9985C13.949 23.9547 13.523 23.8398 13.252 23.7523C12.9754 23.6647 12.5162 23.4841 12.2285 23.3473C11.9408 23.2105 11.4651 22.9424 11.1774 22.7564C10.8897 22.5648 10.4527 22.242 10.2148 22.034C9.97141 21.8261 9.60076 21.4595 9.39054 21.2187C9.17479 20.978 8.84839 20.5457 8.65477 20.2611C8.46667 19.9766 8.1956 19.506 8.0573 19.2214C7.91899 18.9369 7.73643 18.4773 7.64792 18.2091C7.55941 17.9355 7.44323 17.5197 7.39897 17.2789C7.34918 17.0381 7.29386 16.7262 7.24961 16.3213H9.18585V14.6797H7.24961L7.27727 14.417C7.29386 14.2748 7.34918 13.9629 7.39897 13.7221C7.44323 13.4813 7.55941 13.06 7.64792 12.7919C7.73643 12.5183 7.91899 12.0641 8.0573 11.7795C8.1956 11.495 8.46667 11.0244 8.65477 10.7399C8.84839 10.4553 9.17479 10.023 9.39054 9.78226C9.60076 9.54149 9.97141 9.17487 10.2148 8.96693C10.4527 8.75899 10.8731 8.44162 11.1498 8.26104C11.4208 8.08594 11.8136 7.85611 12.0238 7.75215C12.2285 7.64818 12.577 7.49496 12.7983 7.40741C13.0141 7.31986 13.3847 7.19948 13.6115 7.13381C13.8384 7.07362 14.2256 6.98607 14.469 6.94229C14.7124 6.89852 14.9669 6.86021 15.1605 6.85474ZM15.1329 15.1393L12.6324 17.2242C13.1579 17.8534 13.3958 18.1325 13.5064 18.2584L13.7056 18.4827L16.7925 15.9054L16.8202 10.521H15.1605L15.1329 15.1393Z" fill="#016EE8" style="fill:#016EE8;fill:color(display-p3 0.0039 0.4314 0.9098);fill-opacity:1;"/>
</svg>
