<svg width="75" height="96" viewBox="0 0 75 96" fill="none" xmlns="http://www.w3.org/2000/svg">
<g filter="url(#filter0_b_81004_1684)">
<path d="M74.625 43.6663C74.625 67.7163 58.785 90.2063 37.5 95.6663C16.215 90.2063 0.375 67.7163 0.375 43.6663V17.6663L37.5 0.333008L74.625 17.6663V43.6663Z" fill="#0389FF" fill-opacity="0.1" style="fill:#0389FF;fill:color(display-p3 0.0118 0.5373 1.0000);fill-opacity:0.1;"/>
</g>
<path d="M74.625 43.6663C74.625 67.7163 58.785 90.2063 37.5 95.6663C16.215 90.2063 0.375 67.7163 0.375 43.6663V17.6663L37.5 0.333008L74.625 17.6663V43.6663ZM37.5 86.9997C52.9688 82.6663 66.375 63.3397 66.375 44.6197V23.2997L37.5 9.77968L8.625 23.2997V44.6197C8.625 63.3397 22.0312 82.6663 37.5 86.9997Z" fill="#0389FF" style="fill:#0389FF;fill:color(display-p3 0.0118 0.5373 1.0000);fill-opacity:1;"/>
<path d="M31.0385 22.6628C29.5687 22.6939 29.4849 22.7146 29.3073 23.0773C29.1347 23.4296 25.1839 42.6267 23.8325 49.6734C23.5415 51.1967 23.5415 51.2278 23.8916 51.6475L24.0939 51.8858L28.2419 51.891C32.6317 51.8962 36.1434 51.9428 36.1977 52.005C36.2372 52.0464 36.1878 52.2537 34.2642 59.6838C32.4837 66.5543 31.7389 69.4611 31.3098 71.2176C30.9645 72.6528 30.9596 72.715 31.2408 73.0518C31.517 73.3782 32.0792 73.487 32.3209 73.259C32.6613 72.9326 40.2175 61.1916 46.812 50.7355C50.9995 44.093 51.2165 43.7303 51.3596 43.1863C51.4335 42.8961 51.4039 42.7821 51.1672 42.4712L50.9748 42.2122L43.8082 42.1759C39.8624 42.1603 36.3555 42.1292 36.0053 42.1085C35.3987 42.0774 35.3789 42.0723 35.4085 41.9686C35.4233 41.9065 36.8142 38.9427 38.4961 35.3831C41.6134 28.7872 43.1868 25.4193 43.6849 24.2794C43.9956 23.5591 44.0252 23.3467 43.8477 23.0773C43.6504 22.7612 43.5024 22.7094 42.6689 22.6628C41.8452 22.611 33.1348 22.611 31.0385 22.6628Z" fill="white" style="fill:white;fill-opacity:1;"/>
<defs>
<filter id="filter0_b_81004_1684" x="-8.625" y="-8.66699" width="92.25" height="113.333" filterUnits="userSpaceOnUse" color-interpolation-filters="sRGB">
<feFlood flood-opacity="0" result="BackgroundImageFix"/>
<feGaussianBlur in="BackgroundImageFix" stdDeviation="4.5"/>
<feComposite in2="SourceAlpha" operator="in" result="effect1_backgroundBlur_81004_1684"/>
<feBlend mode="normal" in="SourceGraphic" in2="effect1_backgroundBlur_81004_1684" result="shape"/>
</filter>
</defs>
</svg>
