<svg width="18" height="17" viewBox="0 0 18 17" fill="none" xmlns="http://www.w3.org/2000/svg">
<path d="M8.84115 5.6582C8.0897 5.6582 7.36903 5.95671 6.83768 6.48807C6.30632 7.01942 6.00781 7.74009 6.00781 8.49154C6.00781 9.24298 6.30632 9.96365 6.83768 10.495C7.36903 11.0264 8.0897 11.3249 8.84115 11.3249C9.59259 11.3249 10.3133 11.0264 10.8446 10.495C11.376 9.96365 11.6745 9.24298 11.6745 8.49154C11.6745 7.74009 11.376 7.01942 10.8446 6.48807C10.3133 5.95671 9.59259 5.6582 8.84115 5.6582Z" fill="white" style="fill:white;fill-opacity:1;"/>
<path fill-rule="evenodd" clip-rule="evenodd" d="M5.44375 -0.00878906C4.09115 -0.00878906 2.79394 0.528531 1.83751 1.48497C0.88107 2.4414 0.34375 3.73861 0.34375 5.09121L0.34375 11.8912C0.34375 13.2438 0.88107 14.541 1.83751 15.4975C2.79394 16.4539 4.09115 16.9912 5.44375 16.9912H12.2437C13.5964 16.9912 14.8936 16.4539 15.85 15.4975C16.8064 14.541 17.3438 13.2438 17.3438 11.8912V5.09121C17.3438 3.73861 16.8064 2.4414 15.85 1.48497C14.8936 0.528531 13.5964 -0.00878906 12.2437 -0.00878906L5.44375 -0.00878906ZM4.87708 8.49121C4.87708 7.43919 5.295 6.43025 6.03889 5.68635C6.78279 4.94246 7.79172 4.52454 8.84375 4.52454C9.89578 4.52454 10.9047 4.94246 11.6486 5.68635C12.3925 6.43025 12.8104 7.43919 12.8104 8.49121C12.8104 9.54324 12.3925 10.5522 11.6486 11.2961C10.9047 12.04 9.89578 12.4579 8.84375 12.4579C7.79172 12.4579 6.78279 12.04 6.03889 11.2961C5.295 10.5522 4.87708 9.54324 4.87708 8.49121ZM12.8104 4.52454H13.9438V3.39121H12.8104V4.52454Z" fill="white" style="fill:white;fill-opacity:1;"/>
</svg>
