<svg width="26" height="26" viewBox="0 0 26 26" fill="none" xmlns="http://www.w3.org/2000/svg">
<path d="M13.8804 15.5514L20.9106 8.52111L19.1686 6.71688L13.8804 12.0051L11.2051 9.39212L9.46312 11.1341L13.8804 15.5514ZM8.03218 20.4663C7.34782 20.4663 6.76176 20.2225 6.27399 19.7347C5.78623 19.2469 5.54276 18.6613 5.54359 17.9778V3.04621C5.54359 2.36185 5.78747 1.77578 6.27524 1.28802C6.763 0.800257 7.34865 0.55679 8.03218 0.557619H22.9637C23.6481 0.557619 24.2342 0.801501 24.7219 1.28927C25.2097 1.77703 25.4531 2.36268 25.4523 3.04621V17.9778C25.4523 18.6621 25.2084 19.2482 24.7207 19.7359C24.2329 20.2237 23.6473 20.4672 22.9637 20.4663H8.03218ZM3.055 25.4435C2.37064 25.4435 1.78457 25.1996 1.29681 24.7119C0.809046 24.2241 0.565579 23.6385 0.566408 22.9549V5.5348H3.055V22.9549H20.4751V25.4435H3.055Z" fill="#0389FF" style="fill:#0389FF;fill:color(display-p3 0.0118 0.5373 1.0000);fill-opacity:1;"/>
</svg>
