<svg width="18" height="14" viewBox="0 0 18 14" fill="none" xmlns="http://www.w3.org/2000/svg">
<path d="M17.3438 1.61645C16.718 1.90087 16.0436 2.08777 15.3447 2.17716C16.0598 1.74647 16.6124 1.06387 16.8724 0.243123C16.198 0.649433 15.4503 0.93385 14.6621 1.09637C14.0201 0.397521 13.1181 -0.00878906 12.0942 -0.00878906C10.1846 -0.00878906 8.62434 1.55144 8.62434 3.47735C8.62434 3.75364 8.65685 4.0218 8.71373 4.27372C5.82081 4.12745 3.2448 2.73787 1.53017 0.63318C1.22951 1.14513 1.05886 1.74647 1.05886 2.38031C1.05886 3.59112 1.66832 4.66377 2.61096 5.27324C2.034 5.27324 1.49767 5.11071 1.02635 4.86693V4.89131C1.02635 6.58156 2.22903 7.99551 3.82176 8.31244C3.3104 8.45238 2.77356 8.47185 2.25341 8.36932C2.47412 9.06206 2.90638 9.66822 3.48941 10.1026C4.07245 10.5369 4.77695 10.7777 5.50388 10.7909C4.27165 11.7664 2.74423 12.2937 1.17262 12.2861C0.896331 12.2861 0.620041 12.2699 0.34375 12.2374C1.88773 13.2288 3.72425 13.8057 5.69079 13.8057C12.0942 13.8057 15.6129 8.49121 15.6129 3.88366C15.6129 3.72926 15.6129 3.58299 15.6047 3.42859C16.2873 2.94102 16.8724 2.32343 17.3438 1.61645Z" fill="white" style="fill:white;fill-opacity:1;"/>
</svg>
